<?xml version="1.0" encoding="iso-8859-1"?>
<!-- Generator: Adobe Illustrator 22.0.1, SVG Export Plug-In . SVG Version: 6.00 Build 0)  -->
<svg version="1.1" xmlns="http://www.w3.org/2000/svg" xmlns:xlink="http://www.w3.org/1999/xlink" x="0px" y="0px"
	 viewBox="0 0 512 512" style="enable-background:new 0 0 512 512;" xml:space="preserve">
<g id="BULINE">
	<path id="XMLID_1361_" style="fill:#A9E7D8;" d="M512,256c0,70.692-28.654,134.692-74.981,181.019S326.692,512,256,512
		s-134.692-28.654-181.019-74.981S0,326.692,0,256S28.654,121.308,74.981,74.981S185.308,0,256,0s134.692,28.654,181.019,74.981
		S512,185.308,512,256z"/>
</g>
<g id="Icons">
	<g id="XMLID_2056_">
		<path id="XMLID_1310_" style="fill:#93D8C6;" d="M254.28,511.99c-14.2-0.09-28.123-1.337-41.681-3.654
			s-26.754-5.701-39.499-10.066c-10.37-3.545-20.44-7.738-30.163-12.53s-19.098-10.185-28.078-16.13
			c-34.605-22.915-63.32-54.012-83.384-90.534S0,300.61,0,256c0-23.195,3.088-45.673,8.873-67.041S23.14,147.33,33.93,128.57
			c7.26,0.905,14.688,3.275,21.713,7.922S69.29,148.065,74.94,158.08c2.465,4.365,5.688,8.233,9.493,11.371S92.625,175,97.42,176.45
			c4.185,1.26,8.638,1.838,12.838,0.92s8.148-3.33,11.323-8.05c4.5-6.7,10.167-12.443,16.699-16.855s13.926-7.495,21.881-8.875
			c0.255-0.045,0.51-0.087,0.766-0.129s0.514-0.081,0.774-0.121c0.47-0.075,0.94-0.147,1.411-0.216s0.944-0.134,1.419-0.194
			c2.51-0.335,5.047-0.575,7.576-0.691s5.049-0.109,7.524,0.051c2.33,0.145,4.623,0.422,6.849,0.857s4.386,1.027,6.451,1.803
			c1.72,0.645,3.375,1.418,4.948,2.331s3.062,1.969,4.453,3.179c1.17,1.01,2.267,2.133,3.284,3.374s1.951,2.601,2.796,4.086
			c0.085,0.145,0.168,0.29,0.249,0.436s0.161,0.294,0.241,0.444c1.035,1.96,1.92,4.127,2.634,6.52s1.256,5.01,1.606,7.87
			c0.29,2.34,0.45,4.84,0.469,7.511s-0.104,5.514-0.379,8.539c-0.32,3.62-0.86,7.503-1.636,11.661s-1.789,8.594-3.054,13.319
			c-0.015,0.05-0.028,0.098-0.04,0.145s-0.025,0.095-0.04,0.145c-1.26,4.685-2.773,9.657-4.555,14.932s-3.835,10.852-6.175,16.747
			c-1.435,3.625-2.98,7.367-4.639,11.234s-3.431,7.856-5.321,11.976c-2.36,5.13-3.755,10.628-4.093,16.175
			c-0.338,5.548,0.382,11.145,2.252,16.475c0.855,2.435,1.94,4.832,3.316,7.055s3.044,4.27,5.064,6.005
			c2.565,2.2,5.702,3.89,9.535,4.783s8.36,0.988,13.705-0.002c0.76-0.135,1.537-0.295,2.332-0.479s1.607-0.391,2.438-0.621
			c3.35-0.935,6.987-2.258,10.934-4.021s8.201-3.969,12.786-6.669l1.595,39.515l1.595,39.515l2.525,62.43L254.28,511.99z"/>
		<path id="XMLID_1331_" style="fill:#EFA580;" d="M256,512c-0.285,0-0.573,0-0.86-0.001s-0.575-0.004-0.86-0.009
			c-14.2-0.09-28.123-1.337-41.681-3.654s-26.754-5.701-39.499-10.066c-10.37-3.545-20.44-7.738-30.163-12.53
			s-19.098-10.185-28.078-16.13l4.325-29.83l4.325-29.83c0.155-1.07,0.325-2.14,0.508-3.205s0.378-2.125,0.583-3.175
			c0.21-1.055,0.432-2.105,0.666-3.149s0.479-2.081,0.734-3.111c0,0,0,0,0-0.001s0-0.004,0-0.009c0.11-0.42,0.217-0.835,0.327-1.249
			s0.222-0.826,0.342-1.241c0.25-0.955,0.518-1.908,0.798-2.855s0.573-1.89,0.873-2.825c0.11-0.34,0.22-0.675,0.331-1.009
			s0.224-0.666,0.339-1.001c0.35-0.995,0.707-1.988,1.074-2.975s0.741-1.97,1.126-2.945c1.7-4.245,3.627-8.375,5.765-12.374
			s4.485-7.866,7.025-11.586c1.16-1.695,2.36-3.357,3.6-4.988s2.52-3.228,3.84-4.793c0.22-0.26,0.443-0.523,0.668-0.784
			s0.453-0.521,0.683-0.776c4.46-5.12,9.335-9.86,14.582-14.16s10.867-8.16,16.817-11.52v-0.005v-0.005
			c0.075-0.045,0.148-0.087,0.221-0.13s0.149-0.085,0.229-0.13c0.86-0.48,1.725-0.95,2.596-1.409s1.749-0.906,2.634-1.341
			c0.73-0.365,1.465-0.722,2.205-1.071s1.485-0.689,2.235-1.019c1.53-0.685,3.078-1.335,4.642-1.954s3.147-1.206,4.747-1.766
			l2.535-0.87l2.535-0.87l0.005-0.005l0.005-0.005l2.225-0.77l2.225-0.77l3.375-1.17l3.375-1.17l1.17-0.405l1.17-0.405l2.94-1.02
			l2.94-1.02c0.005,0,0.01-0.003,0.015-0.005s0.01-0.005,0.015-0.005c0.79-0.27,1.465-0.75,1.969-1.365s0.836-1.365,0.941-2.175
			c0.01-0.09,0.017-0.18,0.022-0.27c0.005-0.09,0.007-0.18,0.007-0.27v-20.705V257.41h26.435h26.435v21.05v21.05
			c0,0.845,0.245,1.652,0.682,2.336s1.068,1.244,1.838,1.594l1.68,0.76l1.68,0.76l4.65,2.105l4.65,2.105l3.18,1.075l3.18,1.075
			c0.235,0.08,0.47,0.157,0.705,0.237s0.47,0.163,0.705,0.253c1.125,0.395,2.242,0.807,3.35,1.235s2.205,0.87,3.29,1.325
			c0.655,0.27,1.31,0.55,1.964,0.837s1.306,0.582,1.956,0.882c0.32,0.155,0.64,0.308,0.96,0.461s0.64,0.309,0.96,0.469
			c0.18,0.085,0.36,0.172,0.54,0.261s0.36,0.179,0.54,0.269c0.355,0.17,0.71,0.348,1.066,0.529s0.714,0.366,1.074,0.551
			c0.195,0.11,0.393,0.215,0.591,0.32s0.399,0.21,0.599,0.32c0.835,0.45,1.663,0.91,2.484,1.379s1.636,0.946,2.446,1.431
			c1.935,1.17,3.837,2.39,5.701,3.661s3.689,2.594,5.469,3.969c0.44,0.34,0.88,0.683,1.319,1.03s0.876,0.7,1.311,1.06
			c4.06,3.3,7.898,6.865,11.493,10.666s6.948,7.839,10.038,12.084c1.66,2.285,3.242,4.625,4.745,7.022s2.925,4.852,4.265,7.367
			c3.535,6.595,6.493,13.545,8.815,20.779s4.01,14.751,5.005,22.481l3.795,29.545l3.795,29.545
			c-19.97,12.88-41.845,23.057-65.11,30.015S281.53,512,256,512z"/>
		<path id="XMLID_1315_" style="fill:#F9BC86;" d="M261.01,302.91l-4.11,1.425l-4.11,1.425l-3.375,1.17l-3.375,1.17l-2.225,0.77
			l-2.225,0.77l-0.005,0.005l-0.005,0.005l-2.535,0.87l-2.535,0.87c-2.38,0.83-4.725,1.727-7.033,2.695s-4.578,2.005-6.808,3.115
			c-0.06,0.03-0.12,0.06-0.179,0.09s-0.116,0.06-0.171,0.09c-0.81,0.4-1.61,0.81-2.404,1.229s-1.581,0.846-2.366,1.281
			c-0.015,0.01-0.033,0.02-0.05,0.03s-0.035,0.02-0.05,0.03c-0.08,0.045-0.155,0.088-0.229,0.13s-0.146,0.085-0.221,0.13v0.005
			v0.005c-2.76,1.56-5.45,3.227-8.064,4.996s-5.151,3.639-7.606,5.604c-2.845,2.27-5.583,4.665-8.208,7.18s-5.138,5.15-7.532,7.9
			c-0.23,0.255-0.458,0.515-0.683,0.776s-0.447,0.524-0.667,0.784c-1.315,1.565-2.593,3.162-3.831,4.793s-2.439,3.293-3.599,4.988
			c-2.545,3.72-4.893,7.587-7.029,11.586s-4.061,8.129-5.761,12.374c-0.385,0.975-0.763,1.957-1.13,2.945s-0.725,1.98-1.07,2.975
			c-0.115,0.335-0.227,0.667-0.339,1.001s-0.221,0.669-0.331,1.009c-0.305,0.935-0.597,1.878-0.876,2.825s-0.544,1.9-0.794,2.855
			c-0.12,0.415-0.232,0.828-0.342,1.241s-0.217,0.829-0.327,1.249c0,0.005,0,0.008,0,0.009s0,0.001,0,0.001
			c-0.26,1.03-0.508,2.068-0.743,3.111s-0.458,2.094-0.668,3.149c-0.2,1.05-0.392,2.11-0.574,3.175s-0.351,2.135-0.506,3.205
			l-4.245,29.3l-4.245,29.3l-0.6,4.12l-0.6,4.12c1.015,0.965,2.04,1.917,3.074,2.859s2.076,1.871,3.126,2.791
			c0.015,0.015,0.032,0.03,0.05,0.045s0.035,0.03,0.05,0.045c0.01,0.01,0.023,0.02,0.035,0.03s0.025,0.02,0.035,0.03
			c3.21,2.815,6.495,5.533,9.848,8.148s6.773,5.128,10.253,7.533c-10.37-3.545-20.44-7.738-30.163-12.53
			s-19.098-10.185-28.078-16.13l4.325-29.83l4.325-29.83c0.155-1.07,0.325-2.14,0.508-3.205s0.378-2.125,0.583-3.175
			c0.21-1.055,0.432-2.105,0.666-3.149s0.479-2.081,0.734-3.111c0,0,0,0,0-0.001s0-0.004,0-0.009c0.11-0.42,0.217-0.835,0.327-1.249
			s0.222-0.826,0.342-1.241c0.25-0.955,0.518-1.908,0.798-2.855s0.573-1.89,0.873-2.825c0.11-0.34,0.22-0.675,0.331-1.009
			s0.224-0.666,0.339-1.001c0.35-0.995,0.707-1.988,1.074-2.975s0.741-1.97,1.126-2.945c1.7-4.245,3.627-8.375,5.765-12.374
			s4.485-7.866,7.025-11.586c1.16-1.695,2.36-3.357,3.6-4.988s2.52-3.228,3.84-4.793c0.22-0.26,0.443-0.523,0.668-0.784
			s0.453-0.521,0.683-0.776c4.46-5.12,9.335-9.86,14.582-14.16s10.867-8.16,16.817-11.52v-0.005v-0.005
			c0.075-0.045,0.148-0.087,0.221-0.13s0.149-0.085,0.229-0.13c0.86-0.48,1.725-0.95,2.596-1.409s1.749-0.906,2.634-1.341
			c0.73-0.365,1.465-0.722,2.205-1.071s1.485-0.689,2.235-1.019c1.53-0.685,3.078-1.335,4.642-1.954s3.147-1.206,4.747-1.766
			l2.535-0.87l2.535-0.87l0.005-0.005l0.005-0.005l2.225-0.77l2.225-0.77l3.375-1.17l3.375-1.17l1.17-0.405l1.17-0.405l2.94-1.02
			l2.94-1.02c0.005,0,0.01-0.003,0.015-0.005s0.01-0.005,0.015-0.005c0.79-0.27,1.465-0.75,1.969-1.365s0.836-1.365,0.941-2.175
			c0.01-0.09,0.017-0.18,0.022-0.27c0.005-0.09,0.007-0.18,0.007-0.27v-20.705V257.41h16.405h16.405v20.705v20.705
			c0,0.09-0.003,0.18-0.008,0.27c-0.005,0.09-0.013,0.18-0.023,0.27c-0.105,0.81-0.437,1.56-0.941,2.175s-1.179,1.095-1.969,1.365
			c-0.005,0-0.01,0.003-0.015,0.005S261.015,302.91,261.01,302.91z"/>
		<path id="XMLID_1297_" style="fill:#1B305C;" d="M256,512c-0.285,0-0.573,0-0.86-0.001s-0.575-0.004-0.86-0.009
			c-14.2-0.09-28.123-1.337-41.681-3.654s-26.754-5.701-39.499-10.066c-10.37-3.545-20.44-7.738-30.163-12.53
			s-19.098-10.185-28.078-16.13l4.325-29.83l4.325-29.83c0.155-1.07,0.325-2.14,0.508-3.205s0.378-2.125,0.583-3.175
			c0.21-1.055,0.432-2.105,0.666-3.149s0.479-2.081,0.734-3.111c0,0,0,0,0-0.001s0-0.004,0-0.009c0.11-0.42,0.217-0.835,0.327-1.249
			s0.222-0.826,0.342-1.241c0.25-0.955,0.518-1.908,0.798-2.855s0.573-1.89,0.873-2.825c0.11-0.34,0.22-0.675,0.331-1.009
			s0.224-0.666,0.339-1.001c0.35-0.995,0.707-1.988,1.074-2.975s0.741-1.97,1.126-2.945c1.7-4.245,3.627-8.375,5.765-12.374
			s4.485-7.866,7.025-11.586c1.16-1.695,2.36-3.357,3.6-4.988s2.52-3.228,3.84-4.793c0.22-0.26,0.443-0.523,0.668-0.784
			s0.453-0.521,0.683-0.776c4.46-5.12,9.335-9.86,14.582-14.16s10.867-8.16,16.817-11.52v-0.005v-0.005
			c0.075-0.045,0.148-0.087,0.221-0.13s0.149-0.085,0.229-0.13c0.86-0.48,1.725-0.95,2.596-1.409s1.749-0.906,2.634-1.341l5.73,6.81
			l5.73,6.81l22.85,27.16l22.85,27.16c0.33,0.39,0.68,0.752,1.047,1.085s0.753,0.635,1.153,0.905c2.24,1.525,4.93,2.123,7.521,1.791
			s5.084-1.591,6.929-3.781l28.435-33.795l28.435-33.795c0.355,0.17,0.71,0.348,1.066,0.529s0.714,0.366,1.074,0.551
			c0.195,0.11,0.393,0.215,0.591,0.32s0.399,0.21,0.599,0.32c0.835,0.45,1.663,0.91,2.484,1.379s1.636,0.946,2.446,1.431
			c1.935,1.17,3.837,2.39,5.701,3.661s3.689,2.594,5.469,3.969c0.44,0.34,0.88,0.683,1.319,1.03s0.876,0.7,1.311,1.06
			c4.06,3.3,7.898,6.865,11.493,10.666s6.948,7.839,10.038,12.084c1.66,2.285,3.242,4.625,4.745,7.022s2.925,4.852,4.265,7.367
			c3.535,6.595,6.493,13.545,8.815,20.779s4.01,14.751,5.005,22.481l3.795,29.545l3.795,29.545
			c-19.97,12.88-41.845,23.057-65.11,30.015S281.53,512,256,512z"/>
		<path id="XMLID_1265_" style="fill:#B0948F;" d="M283.859,267.526h-26.343h-26.343v11.166v11.166
			c8.781,3.14,17.562,4.711,26.343,4.711s17.562-1.57,26.343-4.711v-11.166V267.526z"/>
		<path id="XMLID_1293_" style="fill:#1A2D4C;" d="M189.87,317.2l5.73,6.81l5.73,6.81c-2.845,2.27-5.583,4.665-8.208,7.18
			s-5.138,5.15-7.532,7.9c-0.23,0.255-0.458,0.515-0.683,0.776s-0.447,0.524-0.667,0.784c-1.315,1.565-2.593,3.162-3.831,4.793
			s-2.439,3.293-3.599,4.988c-2.545,3.72-4.893,7.587-7.029,11.586s-4.061,8.129-5.761,12.374c-0.385,0.975-0.763,1.957-1.13,2.945
			s-0.725,1.98-1.07,2.975c-0.115,0.335-0.227,0.667-0.339,1.001s-0.221,0.669-0.331,1.009c-0.305,0.935-0.597,1.878-0.876,2.825
			s-0.544,1.9-0.794,2.855c-0.12,0.415-0.232,0.828-0.342,1.241s-0.217,0.829-0.327,1.249c0,0.005,0,0.008,0,0.009s0,0.001,0,0.001
			c-0.26,1.03-0.508,2.068-0.743,3.111s-0.458,2.094-0.668,3.149c-0.2,1.05-0.392,2.11-0.574,3.175s-0.351,2.135-0.506,3.205
			l-4.245,29.3l-4.245,29.3c-0.375,2.59-0.098,5.192,0.76,7.582s2.295,4.567,4.24,6.307c0.015,0.015,0.032,0.03,0.05,0.045
			s0.035,0.03,0.05,0.045c0.01,0.01,0.023,0.02,0.035,0.03s0.025,0.02,0.035,0.03c3.21,2.815,6.495,5.533,9.848,8.148
			s6.773,5.128,10.253,7.533c-10.37-3.545-20.44-7.738-30.163-12.53s-19.098-10.185-28.078-16.13l4.325-29.83l4.325-29.83
			c0.155-1.07,0.325-2.14,0.508-3.205s0.378-2.125,0.583-3.175c0.21-1.055,0.432-2.105,0.666-3.149s0.479-2.081,0.734-3.111
			c0,0,0,0,0-0.001s0-0.004,0-0.009c0.11-0.42,0.217-0.835,0.327-1.249s0.222-0.826,0.342-1.241c0.25-0.955,0.518-1.908,0.798-2.855
			s0.573-1.89,0.873-2.825c0.11-0.34,0.22-0.675,0.331-1.009s0.224-0.666,0.339-1.001c0.35-0.995,0.707-1.988,1.074-2.975
			s0.741-1.97,1.126-2.945c1.7-4.245,3.627-8.375,5.765-12.374s4.485-7.866,7.025-11.586c1.16-1.695,2.36-3.357,3.6-4.988
			s2.52-3.228,3.84-4.793c0.22-0.26,0.443-0.523,0.668-0.784s0.453-0.521,0.683-0.776c4.46-5.12,9.335-9.86,14.582-14.16
			s10.867-8.16,16.817-11.52v-0.005v-0.005c0.075-0.045,0.148-0.087,0.221-0.13s0.149-0.085,0.229-0.13
			c0.86-0.48,1.725-0.95,2.596-1.409S188.985,317.635,189.87,317.2z"/>
		<path id="XMLID_1263_" style="fill:#EFA580;" d="M267.958,37.522h-11.621h-11.621c-22.143,0-42.19,9.525-56.701,24.925
			s-23.486,36.674-23.486,60.173v31.224v31.224c0,23.294,9.268,38.67,21.915,51.185s28.672,22.167,42.187,34.011
			c8.046,7.052,17.877,10.577,27.707,10.577c9.831,0,19.661-3.526,27.707-10.577c13.515-11.844,29.54-21.497,42.187-34.011
			c12.647-12.515,21.915-27.892,21.915-51.185v-31.224V122.62c0-23.499-8.975-44.773-23.486-60.173
			C310.148,47.047,290.101,37.522,267.958,37.522z"/>
		<path id="XMLID_1262_" style="fill:#F9BC86;" d="M266.435,270.267c1.377,1.204,2.803,2.306,4.272,3.303
			c1.469,0.997,2.982,1.889,4.531,2.675c-7.511,3.858-15.83,5.286-23.939,4.289c-8.109-0.997-16.007-4.42-22.675-10.267
			c-13.514-11.845-29.539-21.499-42.184-34.015s-21.912-27.894-21.912-51.185v-31.221v-31.221c0-23.501,8.974-44.777,23.484-60.179
			s34.557-24.927,56.702-24.927h11.62h11.62c1.23,0,2.452,0.029,3.666,0.088c1.214,0.059,2.421,0.148,3.619,0.268
			c-20.439,1.952-38.667,12.041-51.785,27.191c-13.118,15.15-21.126,35.361-21.126,57.559v31.221v31.221
			c0,23.292,9.27,38.669,21.918,51.185C236.894,248.768,252.921,258.422,266.435,270.267z"/>
		<path id="XMLID_1261_" style="fill:#F9BC86;" d="M146.155,171.904c0,5.074,2.056,9.667,5.381,12.992
			c3.325,3.325,7.918,5.381,12.992,5.381s9.667-2.056,12.992-5.381c3.325-3.325,5.381-7.918,5.381-12.992s-2.056-9.667-5.381-12.992
			c-3.325-3.325-7.918-5.381-12.992-5.381s-9.667,2.056-12.992,5.381C148.211,162.237,146.155,166.831,146.155,171.904z"/>
		<path id="XMLID_1260_" style="fill:#EFA580;" d="M329.772,171.904c0,5.074,2.056,9.667,5.381,12.992
			c3.325,3.325,7.918,5.381,12.992,5.381s9.667-2.056,12.992-5.381c3.325-3.325,5.381-7.918,5.381-12.992s-2.056-9.667-5.381-12.992
			c-3.325-3.325-7.918-5.381-12.992-5.381s-9.667,2.056-12.992,5.381C331.829,162.237,329.772,166.831,329.772,171.904z"/>
		<path style="fill:#3D2107;" d="M232.378,150.169c-0.65,0-1.308-0.181-1.895-0.56c-7.508-4.844-16.427-6.305-26.514-4.344
			c-7.585,1.476-12.996,4.434-13.05,4.463c-1.691,0.932-3.82,0.324-4.756-1.364c-0.937-1.688-0.332-3.814,1.354-4.754
			c0.256-0.143,6.378-3.517,15.115-5.216c11.751-2.287,22.693-0.441,31.645,5.333c1.624,1.048,2.092,3.214,1.044,4.838
			C234.652,149.604,233.526,150.169,232.378,150.169z"/>
		<path id="XMLID_1257_" style="fill:#1B305C;" d="M218.17,166.15c0,2.074-0.859,3.952-2.248,5.311
			c-1.389,1.359-3.308,2.2-5.428,2.2c-2.12,0-4.039-0.841-5.428-2.2c-1.389-1.359-2.248-3.237-2.248-5.311
			c0-2.074,0.859-3.952,2.248-5.311c1.389-1.359,3.308-2.2,5.428-2.2c2.12,0,4.039,0.841,5.428,2.2
			C217.31,162.198,218.17,164.076,218.17,166.15z"/>
		<path style="fill:#3D2107;" d="M321.609,150.169c-0.65,0-1.308-0.181-1.895-0.56c-7.508-4.844-16.427-6.305-26.514-4.344
			c-7.585,1.476-12.996,4.434-13.05,4.463c-1.692,0.932-3.82,0.324-4.756-1.364c-0.937-1.688-0.332-3.814,1.354-4.754
			c0.256-0.143,6.378-3.517,15.115-5.216c11.752-2.287,22.693-0.441,31.645,5.333c1.624,1.048,2.092,3.214,1.044,4.838
			C323.884,149.604,322.758,150.169,321.609,150.169z"/>
		<path id="XMLID_1255_" style="fill:#1B305C;" d="M307.401,166.15c0,2.074-0.859,3.952-2.248,5.311
			c-1.389,1.359-3.308,2.2-5.428,2.2s-4.039-0.841-5.428-2.2c-1.389-1.359-2.248-3.237-2.248-5.311c0-2.074,0.859-3.952,2.248-5.311
			c1.389-1.359,3.308-2.2,5.428-2.2s4.039,0.841,5.428,2.2C306.542,162.198,307.401,164.076,307.401,166.15z"/>
		<path id="XMLID_1254_" style="fill:#D57249;" d="M264.345,200.397h-8.708h-8.708c-1.281,0-2.441-0.519-3.28-1.359
			c-0.839-0.839-1.359-1.999-1.359-3.28v-0.421v-0.421c0-1.281,0.519-2.441,1.359-3.28c0.839-0.839,1.999-1.359,3.28-1.359h8.708
			h8.708c1.281,0,2.441,0.519,3.28,1.359c0.839,0.839,1.359,1.999,1.359,3.28v0.421v0.421c0,1.281-0.519,2.441-1.359,3.28
			S265.626,200.397,264.345,200.397z"/>
		<path id="XMLID_1253_" style="fill:#FFFFFF;" d="M236.013,218.447c-0.502,0-0.951,0.215-1.265,0.555
			c-0.314,0.34-0.492,0.805-0.451,1.305c0.469,5.765,3.081,11.319,7.024,15.432c3.944,4.113,9.219,6.784,15.016,6.784h0h0
			c5.796,0,11.072-2.671,15.016-6.784c3.944-4.113,6.555-9.667,7.024-15.432c0.041-0.5-0.137-0.965-0.451-1.305
			c-0.314-0.34-0.763-0.555-1.265-0.555h-20.324H236.013z"/>
		<path style="fill:#192C4C;" d="M224.447,165.047c-0.589,0-1.186-0.148-1.733-0.462c-5.32-3.04-11.046-3.966-17.02-2.75
			c-4.384,0.892-7.274,2.661-7.304,2.678c-1.636,1.013-3.795,0.519-4.816-1.116c-1.021-1.634-0.537-3.782,1.092-4.811
			c0.158-0.099,3.924-2.45,9.634-3.611c7.578-1.542,15.147-0.32,21.887,3.532c1.679,0.959,2.262,3.097,1.303,4.775
			C226.843,164.414,225.662,165.047,224.447,165.047z"/>
		<path style="fill:#192C4C;" d="M313.679,165.047c-0.589,0-1.186-0.148-1.733-0.462c-5.32-3.04-11.047-3.966-17.02-2.75
			c-4.384,0.892-7.274,2.661-7.304,2.678c-1.635,1.013-3.795,0.519-4.816-1.116c-1.021-1.634-0.537-3.782,1.092-4.811
			c0.158-0.099,3.924-2.45,9.634-3.611c7.578-1.542,15.147-0.32,21.887,3.532c1.679,0.959,2.262,3.097,1.303,4.775
			C316.074,164.414,314.894,165.047,313.679,165.047z"/>
		<path id="XMLID_1250_" style="fill:#1B305C;" d="M187.29,119.667c0,0-3.58,7.588-8.216,15.615s-10.326,16.493-14.547,18.249
			l-2.754-16.932l-2.754-16.932h14.136H187.29z"/>
		<path id="XMLID_1249_" style="fill:#1B305C;" d="M325.732,119.667c0,0,3.58,7.588,8.216,15.615s10.326,16.493,14.547,18.249
			l2.754-16.932l2.754-16.932h-14.136H325.732z"/>
		<path id="XMLID_1248_" style="fill:#E17265;" d="M189.221,200.397c0,4.032,1.634,7.683,4.277,10.325s6.293,4.277,10.325,4.277
			c4.032,0,7.683-1.634,10.325-4.277s4.277-6.293,4.277-10.325s-1.634-7.683-4.277-10.325s-6.293-4.277-10.325-4.277
			c-4.032,0-7.683,1.634-10.325,4.277S189.221,196.364,189.221,200.397z"/>
		<path id="XMLID_1247_" style="fill:#E17265;" d="M292.799,200.397c0,4.032,1.634,7.683,4.277,10.325
			c2.643,2.643,6.293,4.277,10.325,4.277s7.683-1.634,10.325-4.277c2.643-2.643,4.277-6.293,4.277-10.325s-1.634-7.683-4.277-10.325
			c-2.642-2.643-6.293-4.277-10.325-4.277s-7.683,1.634-10.325,4.277C294.433,192.714,292.799,196.364,292.799,200.397z"/>
		<path style="fill:#3D2107;" d="M222.32,329.386c-1.933,0-3.5-1.567-3.5-3.5v-82.921c0-9.963,3.88-19.33,10.924-26.375
			c7.046-7.044,16.412-10.924,26.374-10.924c9.963,0,19.329,3.88,26.374,10.924c7.045,7.045,10.925,16.412,10.925,26.375v81.874
			c0,1.933-1.567,3.5-3.5,3.5s-3.5-1.567-3.5-3.5v-81.874c0-8.093-3.151-15.702-8.874-21.424s-13.332-8.875-21.425-8.875
			c-8.092,0-15.701,3.152-21.425,8.875c-5.722,5.722-8.873,13.331-8.873,21.424v82.921
			C225.82,327.819,224.253,329.386,222.32,329.386z"/>
		<path id="XMLID_2498_" style="fill:#CD9D93;" d="M349.892,180.127c2.271,0,4.326-0.92,5.814-2.408
			c1.488-1.488,2.408-3.544,2.408-5.814s-0.92-4.326-2.408-5.815c-1.488-1.488-3.544-2.408-5.814-2.408v8.223V180.127z"/>
		<path id="XMLID_2500_" style="fill:#D57249;" d="M164.528,163.681c-2.271,0-4.326,0.92-5.814,2.408
			c-1.488,1.488-2.408,3.544-2.408,5.814s0.92,4.326,2.408,5.815c1.488,1.488,3.544,2.408,5.814,2.408v-8.223V163.681z"/>
		<path id="XMLID_44_" style="fill:#E7AE2D;" d="M383.638,104.091c1.826,1.404,2.551,3.53,2.289,5.529
			c-0.262,1.999-1.512,3.871-3.634,4.767c-11.165,4.715-22.147,8.688-32.907,12.007c-10.76,3.319-21.3,5.982-31.582,8.075
			c-23.475,4.78-45.613,6.595-65.978,6.457s-38.958-2.227-55.343-5.257c-16.078-2.975-30.034-6.854-41.458-10.681
			c-11.424-3.828-20.316-7.604-26.265-10.373c-2.034-0.947-3.207-2.801-3.427-4.763c-0.221-1.962,0.51-4.031,2.282-5.409
			l63.75-49.582l63.75-49.582l64.262,49.406L383.638,104.091z"/>
		<path id="XMLID_38_" style="fill:#E39123;" d="M317.804,134.47c-23.475,4.78-45.613,6.595-65.978,6.457
			s-38.958-2.227-55.343-5.257l29.315-65.195L255.115,5.28l31.345,64.595L317.804,134.47z"/>
	</g>
</g>
</svg>
