<svg width="40" height="40" viewBox="0 0 40 40" fill="none" xmlns="http://www.w3.org/2000/svg">
<path d="M30.6499 11.4331L24.3999 5.18311C24.2827 5.06592 24.124 5 23.958 5H10.833C9.4542 5 8.33301 6.12119 8.33301 7.50002V32.5C8.33301 33.8788 9.4542 35 10.833 35H28.333C29.7118 35 30.833 33.8788 30.833 32.5V11.875C30.833 11.709 30.7671 11.5503 30.6499 11.4331ZM24.583 7.13381L28.6992 11.25H25.833C25.1439 11.25 24.583 10.6891 24.583 10V7.13381ZM29.583 32.5C29.583 33.189 29.0221 33.75 28.333 33.75H10.833C10.144 33.75 9.58305 33.189 9.58305 32.5V7.50002C9.58305 6.81096 10.144 6.25004 10.833 6.25004H23.333V10C23.333 11.3788 24.4542 12.5 25.833 12.5H29.583V32.5Z" fill="#EC2B30"/>
<path d="M22.7696 23.3478C22.191 22.8925 21.6411 22.4243 21.2749 22.0581C20.7988 21.5821 20.3746 21.1206 20.006 20.6812C20.581 18.9044 20.833 17.9883 20.833 17.5C20.833 15.4254 20.0835 15 18.958 15C18.1029 15 17.083 15.4443 17.083 17.5598C17.083 18.4925 17.5939 19.6247 18.6065 20.9406C18.3587 21.6968 18.0675 22.569 17.7404 23.5523C17.5829 24.0241 17.4121 24.4611 17.2313 24.8651C17.0843 24.9305 16.9414 24.997 16.8035 25.0659C16.3067 25.3144 15.8349 25.5377 15.3972 25.7453C13.4014 26.6901 12.083 27.3151 12.083 28.5492C12.083 29.4452 13.0565 30 13.958 30C15.1201 30 16.8749 28.4478 18.1566 25.8331C19.4871 25.3082 21.1412 24.9194 22.4468 24.6759C23.4929 25.4803 24.6483 26.25 25.208 26.25C26.7577 26.25 27.083 25.354 27.083 24.6026C27.083 23.125 25.3947 23.125 24.583 23.125C24.3309 23.125 23.6547 23.1995 22.7696 23.3478ZM13.958 28.75C13.6009 28.75 13.3592 28.5815 13.333 28.5492C13.333 28.1061 14.6544 27.4799 15.9325 26.8744C16.0137 26.836 16.0961 26.7975 16.1797 26.7578C15.241 28.119 14.3126 28.75 13.958 28.75ZM18.333 17.5598C18.333 16.25 18.7396 16.25 18.958 16.25C19.4 16.25 19.5831 16.25 19.5831 17.5C19.5831 17.7637 19.4073 18.4229 19.0856 19.4519C18.5948 18.6963 18.333 18.0487 18.333 17.5598ZM18.8121 24.2774C18.8512 24.1687 18.8891 24.0589 18.9257 23.9478C19.1576 23.252 19.3664 22.627 19.5525 22.0642C19.8119 22.3499 20.0915 22.6423 20.3912 22.9419C20.5084 23.0591 20.7989 23.3228 21.1859 23.6529C20.4155 23.8208 19.5958 24.0289 18.8121 24.2774ZM25.833 24.6027C25.833 24.8835 25.833 25 25.2532 25.0037C25.0829 24.9671 24.6892 24.7352 24.2034 24.4043C24.3797 24.3848 24.5097 24.375 24.583 24.375C25.5065 24.375 25.7683 24.4653 25.833 24.6027Z" fill="#EC2B30"/>
</svg>
