<?xml version="1.0" encoding="iso-8859-1"?>
<!-- Generator: Adobe Illustrator 22.0.1, SVG Export Plug-In . SVG Version: 6.00 Build 0)  -->
<svg version="1.1" xmlns="http://www.w3.org/2000/svg" xmlns:xlink="http://www.w3.org/1999/xlink" x="0px" y="0px"
	 viewBox="0 0 512 512" style="enable-background:new 0 0 512 512;" xml:space="preserve">
<g id="BULINE">
	<path id="XMLID_1107_" style="fill:#5493A0;" d="M512,256c0,70.692-28.654,134.692-74.981,181.019S326.692,512,256,512
		s-134.692-28.654-181.019-74.981S0,326.692,0,256S28.654,121.308,74.981,74.981S185.308,0,256,0s134.692,28.654,181.019,74.981
		S512,185.308,512,256z"/>
</g>
<g id="Icons">
	<g id="XMLID_2480_">
		<g id="XMLID_1045_">
			<path id="XMLID_1100_" style="fill:#498085;" d="M512,256c0,45.355-11.795,87.955-32.485,124.9s-50.275,68.235-85.855,90.97
				c-19.875,12.7-41.622,22.733-64.735,29.59C305.812,508.318,281.335,512,256,512c-12.21,0-24.222-0.855-35.979-2.509
				c-11.756-1.654-23.256-4.106-34.441-7.301c-2.74-0.78-5.458-1.605-8.155-2.475s-5.375-1.785-8.035-2.745
				c-2.32-0.83-4.625-1.695-6.914-2.594c-2.289-0.899-4.561-1.831-6.816-2.796c-0.24-0.1-0.477-0.2-0.714-0.301
				s-0.471-0.204-0.706-0.309c-2.2-0.955-4.385-1.937-6.554-2.951c-2.169-1.014-4.321-2.059-6.456-3.139
				c-4.33-2.17-8.587-4.46-12.77-6.866c-4.183-2.406-8.29-4.929-12.32-7.564c-32.915-21.51-60.575-50.393-80.634-84.304
				S2.99,313.295,0.48,271.67c10.52-9.445,27.145-20.935,48.86-25.079s48.52-0.941,79.4,18.999c0,0,8.158,7.103,20.445,10.616
				s28.705,3.439,45.225-10.916c0,0,1.903-0.81,5.269-2.065s8.196-2.955,14.051-4.735c0.28-0.09,0.563-0.177,0.848-0.264
				c0.285-0.086,0.572-0.171,0.862-0.256c11.635-3.455,26.91-7.077,42.708-8.269s32.118,0.049,45.842,6.319c0,0,0,0,0.001,0
				s0.004,0,0.009,0c3.45,1.57,6.735,3.457,9.806,5.705c3.071,2.247,5.929,4.855,8.524,7.865c0,0,20.28,7,41.06,5.125
				s42.06-12.625,44.06-48.125c0,0-3.295-14.25,0.109-30.25s13.506-33.75,40.301-40.75c0,0,3.945-3.875,8.72-10.776
				s10.38-16.829,13.7-28.934c13.19,20.13,23.62,42.23,30.752,65.763S512,230.14,512,256z"/>
			<g id="XMLID_883_">
				<path id="XMLID_1087_" style="fill:#EFA580;" d="M393.66,471.87c-19.875,12.7-41.622,22.733-64.735,29.59
					C305.812,508.318,281.335,512,256,512c-12.21,0-24.222-0.855-35.979-2.509c-11.756-1.654-23.256-4.106-34.441-7.301
					c-2.74-0.78-5.458-1.605-8.155-2.475s-5.375-1.785-8.035-2.745c-2.32-0.83-4.625-1.695-6.914-2.594
					c-2.289-0.899-4.561-1.831-6.816-2.796c-0.24-0.1-0.477-0.2-0.714-0.301s-0.471-0.204-0.706-0.309
					c-2.2-0.955-4.385-1.937-6.554-2.951c-2.169-1.014-4.321-2.059-6.456-3.139c-4.33-2.17-8.587-4.46-12.77-6.866
					c-4.183-2.406-8.29-4.929-12.32-7.564l4.395-30.335l4.395-30.335c0.155-1.065,0.323-2.123,0.501-3.175s0.369-2.1,0.569-3.145
					c0.21-1.045,0.432-2.087,0.665-3.124c0.233-1.036,0.475-2.066,0.725-3.086c0,0,0,0,0-0.001s0-0.004,0-0.009
					c0.11-0.41,0.217-0.82,0.328-1.229c0.11-0.409,0.223-0.816,0.343-1.221c0.25-0.95,0.517-1.895,0.796-2.835
					c0.279-0.94,0.569-1.875,0.864-2.805c0.105-0.33,0.212-0.662,0.323-0.994s0.223-0.661,0.338-0.986
					c0.345-0.99,0.698-1.975,1.06-2.955s0.735-1.955,1.12-2.925c1.685-4.2,3.592-8.29,5.709-12.25
					c2.116-3.96,4.441-7.79,6.961-11.47c1.15-1.68,2.338-3.33,3.565-4.948c1.227-1.618,2.495-3.203,3.805-4.753
					c0.215-0.26,0.435-0.52,0.659-0.78c0.224-0.26,0.451-0.52,0.681-0.78c4.415-5.07,9.245-9.763,14.445-14.021
					c5.2-4.259,10.77-8.084,16.665-11.419v-0.005v-0.005c0.075-0.035,0.147-0.077,0.221-0.121s0.149-0.089,0.229-0.129
					c2.99-1.675,6.062-3.223,9.213-4.638s6.378-2.698,9.678-3.842l2.51-0.87l2.51-0.87c0,0,0.003,0,0.005-0.001
					s0.005-0.004,0.005-0.009l1.52-0.52l1.52-0.52l0.685-0.235l0.685-0.235l0.88-0.305l0.88-0.305l2.465-0.855l2.465-0.855
					l4.07-1.415l4.07-1.415c0.005,0,0.01,0,0.015-0.001s0.01-0.004,0.015-0.009c0.865-0.3,1.592-0.852,2.104-1.559
					c0.511-0.706,0.806-1.566,0.806-2.481v-20.515V258.64h26.19h26.19v20.855v20.855c0,0.84,0.245,1.64,0.68,2.316
					c0.435,0.676,1.06,1.229,1.82,1.574l4.43,2.01l4.43,2.01l1.84,0.835l1.84,0.835l1.92,0.645l1.92,0.645l1.235,0.415l1.235,0.415
					c0.235,0.08,0.467,0.16,0.701,0.242c0.234,0.082,0.469,0.168,0.709,0.258c1.11,0.385,2.215,0.79,3.311,1.211
					s2.184,0.859,3.259,1.309c0.645,0.275,1.295,0.555,1.942,0.841c0.647,0.286,1.292,0.579,1.927,0.879
					c0.325,0.15,0.648,0.3,0.966,0.452s0.634,0.307,0.944,0.467c0.535,0.25,1.067,0.508,1.599,0.773s1.061,0.538,1.591,0.818
					c0.195,0.105,0.392,0.21,0.59,0.315s0.395,0.21,0.59,0.315c0.83,0.445,1.65,0.9,2.464,1.365s1.621,0.94,2.426,1.425
					c1.915,1.16,3.8,2.37,5.646,3.63s3.654,2.57,5.414,3.93c0.44,0.335,0.875,0.677,1.31,1.022c0.435,0.345,0.87,0.692,1.31,1.038
					c4.015,3.28,7.815,6.815,11.376,10.581s6.884,7.764,9.944,11.969c1.645,2.26,3.215,4.58,4.705,6.956s2.9,4.809,4.225,7.294
					c3.5,6.535,6.43,13.425,8.731,20.596c2.301,7.171,3.974,14.624,4.959,22.284l3.845,29.925L393.66,471.87z"/>
				<path id="XMLID_1063_" style="fill:#C1A199;" d="M268.25,258.64v20.515v20.515c0,0.915-0.295,1.775-0.807,2.481
					c-0.512,0.706-1.242,1.259-2.112,1.559c-0.005,0.005-0.01,0.008-0.015,0.009s-0.01,0.001-0.015,0.001l-3.73,1.3l-3.73,1.3
					l-0.165,0.055l-0.165,0.055l-0.17,0.06l-0.17,0.06l-2.47,0.855l-2.47,0.855l-0.88,0.305l-0.88,0.305l-2.2,0.755l-2.2,0.755
					c0,0.005-0.003,0.008-0.005,0.009s-0.005,0.001-0.005,0.001h-0.005h-0.005l-2.505,0.87l-2.505,0.87
					c-3.3,1.145-6.528,2.427-9.679,3.842s-6.226,2.963-9.221,4.638c-0.075,0.04-0.15,0.085-0.224,0.129s-0.146,0.086-0.216,0.121
					v0.005v0.005c-5.89,3.335-11.46,7.16-16.663,11.419c-5.202,4.259-10.037,8.951-14.457,14.021c-0.23,0.26-0.453,0.52-0.673,0.78
					c-0.22,0.26-0.438,0.52-0.657,0.78c-1.305,1.55-2.573,3.135-3.801,4.753c-1.229,1.617-2.419,3.268-3.569,4.948
					c-2.515,3.68-4.837,7.51-6.954,11.47c-2.116,3.96-4.026,8.05-5.716,12.25c-0.38,0.97-0.753,1.945-1.115,2.925
					s-0.715,1.965-1.055,2.955c-0.115,0.325-0.23,0.655-0.342,0.986s-0.223,0.664-0.328,0.994c-0.3,0.93-0.59,1.865-0.869,2.805
					c-0.279,0.94-0.546,1.885-0.801,2.835c-0.115,0.405-0.225,0.812-0.332,1.221c-0.107,0.409-0.212,0.819-0.317,1.229
					c0,0.005,0,0.008,0,0.009s0,0.001,0,0.001c-0.26,1.02-0.505,2.05-0.738,3.086c-0.232,1.036-0.452,2.079-0.663,3.124
					c-0.205,1.045-0.398,2.093-0.576,3.145s-0.344,2.11-0.494,3.175l-0.72,4.99l-0.72,4.99l-0.695,4.78l-0.695,4.78l-2.79,19.285
					l-2.79,19.285c-0.2,1.38-0.212,2.762-0.047,4.114c0.165,1.351,0.508,2.671,1.018,3.926c0.435,1.095,0.997,2.138,1.68,3.106
					s1.485,1.864,2.4,2.664c0.01,0.005,0.02,0.013,0.03,0.021s0.02,0.019,0.03,0.029c0.05,0.045,0.1,0.087,0.15,0.13
					c0.05,0.042,0.1,0.085,0.15,0.13c2,1.745,4.025,3.452,6.076,5.121c2.051,1.669,4.129,3.299,6.234,4.889
					c2.385,1.8,4.802,3.547,7.251,5.242c2.449,1.695,4.929,3.337,7.439,4.927c-2.74-0.78-5.458-1.605-8.155-2.475
					s-5.375-1.785-8.035-2.745c-2.32-0.83-4.625-1.695-6.914-2.594c-2.289-0.899-4.561-1.831-6.816-2.796
					c-0.24-0.1-0.477-0.2-0.714-0.301s-0.471-0.204-0.706-0.309c-2.2-0.955-4.385-1.937-6.554-2.951
					c-2.169-1.014-4.321-2.059-6.456-3.139c-4.33-2.17-8.587-4.46-12.77-6.866c-4.183-2.406-8.29-4.929-12.32-7.564l4.395-30.335
					l4.395-30.335c0.155-1.065,0.323-2.123,0.501-3.175s0.369-2.1,0.569-3.145c0.21-1.045,0.432-2.087,0.665-3.124
					c0.233-1.036,0.475-2.066,0.725-3.086c0,0,0,0,0-0.001s0-0.004,0-0.009c0.11-0.41,0.217-0.82,0.328-1.229
					c0.11-0.409,0.223-0.816,0.343-1.221c0.25-0.95,0.517-1.895,0.796-2.835c0.279-0.94,0.569-1.875,0.864-2.805
					c0.105-0.33,0.212-0.662,0.323-0.994s0.223-0.661,0.338-0.986c0.345-0.99,0.698-1.975,1.06-2.955s0.735-1.955,1.12-2.925
					c1.685-4.2,3.592-8.29,5.709-12.25c2.116-3.96,4.441-7.79,6.961-11.47c1.15-1.68,2.338-3.33,3.565-4.948
					c1.227-1.618,2.495-3.203,3.805-4.753c0.215-0.26,0.435-0.52,0.659-0.78c0.224-0.26,0.451-0.52,0.681-0.78
					c4.415-5.07,9.245-9.763,14.445-14.021c5.2-4.259,10.77-8.084,16.665-11.419v-0.005v-0.005c0.075-0.035,0.147-0.077,0.221-0.121
					s0.149-0.089,0.229-0.129c2.99-1.675,6.062-3.223,9.213-4.638s6.378-2.698,9.678-3.842l2.51-0.87l2.51-0.87
					c0,0,0.003,0,0.005-0.001s0.005-0.004,0.005-0.009l1.52-0.52l1.52-0.52l0.685-0.235l0.685-0.235l0.88-0.305l0.88-0.305
					l2.465-0.855l2.465-0.855l4.07-1.415l4.07-1.415c0.005,0,0.01,0,0.015-0.001s0.01-0.004,0.015-0.009
					c0.865-0.3,1.592-0.852,2.104-1.559c0.511-0.706,0.806-1.566,0.806-2.481v-20.515V258.64h18.325H268.25z"/>
				<path id="XMLID_1025_" style="fill:#BE998C;" d="M283.979,269.008H257.79h-26.189v10.243v10.243
					c8.73,2.939,17.459,4.408,26.189,4.408c8.73,0,17.459-1.469,26.189-4.408v-10.243V269.008z"/>
				<path id="XMLID_1024_" style="fill:#192B49;" d="M93.545,81.332c0,16.294,6.604,31.045,17.282,41.723
					s25.429,17.282,41.723,17.282s31.045-6.604,41.723-17.282c10.678-10.678,17.282-25.429,17.282-41.723
					s-6.604-31.045-17.282-41.723c-10.678-10.678-25.429-17.282-41.723-17.282s-31.045,6.604-41.723,17.282
					S93.545,65.038,93.545,81.332z"/>
				<path id="XMLID_1003_" style="fill:#1B305C;" d="M303.755,81.332c0,16.294,6.604,31.045,17.282,41.723
					s25.429,17.282,41.723,17.282s31.045-6.604,41.723-17.282c10.678-10.678,17.282-25.429,17.282-41.723
					s-6.604-31.045-17.282-41.723c-10.678-10.678-25.429-17.282-41.723-17.282s-31.045,6.604-41.723,17.282
					S303.755,65.038,303.755,81.332z"/>
				<path id="XMLID_1002_" style="fill:#E9B12D;" d="M383.978,98.299c0,9.786-2.383,19.017-6.601,27.143
					c-4.218,8.125-10.27,15.145-17.608,20.507c1.426-4.263,2.523-8.648,3.263-13.133c0.74-4.485,1.124-9.069,1.124-13.732
					c0-16.367-4.714-31.783-13.037-45.295c-8.322-13.512-20.253-25.122-34.686-33.876c1.395-0.207,2.806-0.363,4.231-0.467
					c1.425-0.104,2.864-0.156,4.316-0.156c16.29,0,31.039,6.605,41.716,17.283C377.374,67.252,383.978,82.004,383.978,98.299z"/>
				<path id="XMLID_1000_" style="fill:#E9B12D;" d="M128.736,98.299c0,9.786,2.383,19.017,6.601,27.143s10.27,15.145,17.608,20.507
					c-1.426-4.263-2.523-8.648-3.263-13.133c-0.74-4.485-1.124-9.069-1.124-13.732c0-16.367,4.714-31.783,13.037-45.295
					c8.322-13.512,20.253-25.122,34.686-33.876c-1.395-0.207-2.806-0.363-4.231-0.467c-1.425-0.104-2.864-0.156-4.316-0.156
					c-16.29,0-31.039,6.605-41.716,17.283S128.736,82.004,128.736,98.299z"/>
				<path id="XMLID_999_" style="fill:#1B305C;" d="M257.212,19.588c-30.993,0-59.051,10.827-79.361,28.332
					s-32.873,41.687-32.873,68.398s12.562,50.894,32.873,68.398s48.369,28.332,79.361,28.332c30.993,0,59.051-10.827,79.362-28.332
					c20.31-17.505,32.873-41.687,32.873-68.398s-12.562-50.894-32.873-68.398C316.263,30.415,288.204,19.588,257.212,19.588z"/>
				<path id="XMLID_968_" style="fill:#192B49;" d="M282.278,210.654c-4.004,0.783-8.088,1.382-12.241,1.785
					c-4.153,0.403-8.374,0.611-12.653,0.611c-30.992,0-59.052-10.829-79.363-28.334s-32.875-41.689-32.875-68.397
					c0-26.714,12.563-50.896,32.875-68.401s48.371-28.33,79.363-28.33c4.279,0,8.5,0.207,12.653,0.611s8.237,1.002,12.241,1.785
					c-25.002,4.875-46.838,16.946-62.424,33.554s-24.921,37.755-24.921,60.781c0,23.021,9.335,44.167,24.921,60.777
					S257.276,205.779,282.278,210.654z"/>
				<path id="XMLID_967_" style="fill:#FBDBC4;" d="M166.24,124.907v30.94v30.94c0,23.078,9.185,38.315,21.717,50.715
					c12.532,12.4,28.412,21.963,41.803,33.694c7.971,6.991,17.711,10.486,27.451,10.486c9.741,0,19.483-3.495,27.459-10.486
					c13.391-11.731,29.268-21.294,41.797-33.694c12.53-12.4,21.712-27.637,21.712-50.715v-23.887v-23.887
					c-61.455-8.645-105.073-21.097-133.327-31.388s-41.144-18.42-41.144-18.42c-2.396,5.419-4.263,11.155-5.531,17.131
					C166.909,112.313,166.24,118.528,166.24,124.907z"/>
				<path id="XMLID_966_" style="fill:#F6BB9B;" d="M196.675,148.421v30.94v30.94c0,16.279,4.572,28.658,11.665,38.892
					c7.093,10.233,16.708,18.321,26.795,26.017c-0.934-0.586-1.849-1.214-2.745-1.883c-0.896-0.669-1.772-1.38-2.628-2.132
					c-13.391-11.731-29.27-21.294-41.803-33.694c-12.532-12.4-21.717-27.637-21.717-50.715v-30.94v-30.94
					c0-6.379,0.669-12.594,1.937-18.57c1.268-5.976,3.135-11.712,5.531-17.131c0,0,12.89,8.129,41.144,18.42
					s71.872,22.742,133.327,31.388v9.345v9.345c-28.15-4.979-51.795-10.675-71.26-16.302c-19.465-5.627-34.75-11.186-46.18-15.889
					c-8.058-3.316-16.557-2.041-23.049,2.24c-6.493,4.282-10.98,11.571-11.017,20.285c0,0.064,0,0.127-0.001,0.191
					C196.675,148.293,196.675,148.357,196.675,148.421z"/>
				<path id="XMLID_965_" style="fill:#F6BB9B;" d="M148.483,173.743c0,5.027,2.038,9.578,5.332,12.873
					c3.294,3.294,7.846,5.332,12.873,5.332s9.578-2.038,12.873-5.332c3.294-3.294,5.332-7.846,5.332-12.873
					s-2.038-9.578-5.332-12.873c-3.294-3.294-7.846-5.332-12.873-5.332s-9.578,2.038-12.873,5.332
					C150.521,164.165,148.483,168.716,148.483,173.743z"/>
				<path id="XMLID_964_" style="fill:#FBDBC4;" d="M330.418,173.743c0,5.027,2.038,9.578,5.332,12.873
					c3.294,3.294,7.846,5.332,12.873,5.332c5.027,0,9.578-2.038,12.873-5.332c3.294-3.294,5.332-7.846,5.332-12.873
					s-2.038-9.578-5.332-12.873c-3.294-3.294-7.846-5.332-12.873-5.332c-5.027,0-9.578,2.038-12.873,5.332
					C332.456,164.165,330.418,168.716,330.418,173.743z"/>
				<path style="fill:#3D2107;" d="M191.158,152.239c-1.229,0-2.42-0.648-3.061-1.797c-0.94-1.689-0.334-3.82,1.354-4.761
					c0.254-0.142,6.323-3.487,14.986-5.172c11.65-2.268,22.501-0.438,31.378,5.289c1.624,1.048,2.092,3.214,1.044,4.838
					c-1.05,1.625-3.216,2.091-4.839,1.043c-7.433-4.795-16.264-6.241-26.247-4.299c-7.579,1.475-12.863,4.387-12.916,4.416
					C192.319,152.097,191.734,152.239,191.158,152.239z"/>
				<path id="XMLID_962_" style="fill:#1B305C;" d="M219.838,171.548c0,3.023-0.851,5.76-2.228,7.742
					c-1.376,1.981-3.278,3.207-5.378,3.207s-4.002-1.225-5.378-3.207c-1.376-1.981-2.228-4.718-2.228-7.742s0.851-5.76,2.228-7.742
					s3.278-3.207,5.378-3.207s4.002,1.225,5.378,3.207S219.838,168.524,219.838,171.548z"/>
				<path style="fill:#3D2107;" d="M279.571,152.239c-1.229,0-2.42-0.648-3.061-1.797c-0.94-1.688-0.334-3.82,1.354-4.761
					c0.254-0.142,6.324-3.487,14.986-5.172c11.65-2.267,22.501-0.438,31.378,5.289c1.624,1.048,2.092,3.214,1.044,4.838
					c-1.05,1.625-3.215,2.091-4.839,1.043c-7.433-4.795-16.26-6.241-26.247-4.299c-7.578,1.475-12.863,4.387-12.916,4.416
					C280.732,152.097,280.147,152.239,279.571,152.239z"/>
				<path id="XMLID_959_" style="fill:#1B305C;" d="M308.252,171.548c0,3.023-0.851,5.76-2.228,7.742
					c-1.376,1.981-3.278,3.207-5.378,3.207c-2.1,0-4.002-1.225-5.378-3.207c-1.376-1.981-2.228-4.718-2.228-7.742
					s0.851-5.76,2.228-7.742s3.278-3.207,5.378-3.207c2.1,0,4.002,1.225,5.378,3.207C307.4,165.787,308.252,168.524,308.252,171.548
					z"/>
				<path id="XMLID_958_" style="fill:#CD9D93;" d="M265.59,201.974h-8.628h-8.628c-1.269,0-2.418-0.514-3.25-1.346
					c-0.832-0.832-1.346-1.981-1.346-3.25v-0.417v-0.417c0-1.269,0.514-2.418,1.346-3.25c0.832-0.832,1.981-1.346,3.25-1.346h8.628
					h8.628c1.269,0,2.418,0.514,3.25,1.346c0.832,0.832,1.346,1.981,1.346,3.25v0.417v0.417c0,1.269-0.514,2.418-1.346,3.25
					C268.008,201.46,266.859,201.974,265.59,201.974z"/>
				<path id="XMLID_957_" style="fill:#FFFFFF;" d="M237.517,214.154c-0.497,0-0.943,0.213-1.253,0.55s-0.487,0.798-0.447,1.293
					c0.465,5.712,3.052,11.216,6.96,15.291s9.135,6.722,14.878,6.722h0h0c5.743,0,10.971-2.647,14.878-6.722
					c3.908-4.075,6.495-9.578,6.96-15.291c0.04-0.496-0.136-0.956-0.447-1.293c-0.311-0.337-0.756-0.55-1.253-0.55h-20.138H237.517z
					"/>
				<path style="fill:#182A43;" d="M226.059,166.981c-0.589,0-1.186-0.148-1.733-0.461c-5.263-3.008-10.927-3.923-16.842-2.721
					c-4.349,0.885-7.185,2.624-7.212,2.641c-1.633,1.032-3.795,0.545-4.828-1.09c-1.032-1.634-0.545-3.796,1.09-4.828
					c0.156-0.099,3.892-2.431,9.556-3.583c7.519-1.528,15.025-0.316,21.709,3.502c1.679,0.959,2.262,3.097,1.303,4.775
					C228.454,166.348,227.273,166.981,226.059,166.981z"/>
				<path style="fill:#182A43;" d="M314.472,166.981c-0.589,0-1.186-0.148-1.733-0.461c-5.265-3.008-10.928-3.923-16.841-2.721
					c-4.338,0.882-7.198,2.632-7.227,2.649c-1.636,1.013-3.795,0.519-4.816-1.116c-1.021-1.634-0.537-3.782,1.092-4.811
					c0.156-0.099,3.894-2.43,9.557-3.582c7.512-1.528,15.022-0.318,21.708,3.502c1.679,0.959,2.262,3.097,1.303,4.775
					C316.867,166.348,315.687,166.981,314.472,166.981z"/>
				<path id="XMLID_1072_" style="fill:#963636;" d="M393.66,471.87c-19.875,12.7-41.622,22.733-64.735,29.59
					C305.812,508.318,281.335,512,256,512c-12.21,0-24.222-0.855-35.979-2.509c-11.756-1.654-23.256-4.106-34.441-7.301
					c-2.74-0.78-5.458-1.605-8.155-2.475s-5.375-1.785-8.035-2.745c-2.32-0.83-4.625-1.695-6.914-2.594
					c-2.289-0.899-4.561-1.831-6.816-2.796c-0.24-0.1-0.477-0.2-0.714-0.301s-0.471-0.204-0.706-0.309
					c-2.2-0.955-4.385-1.937-6.554-2.951c-2.169-1.014-4.321-2.059-6.456-3.139c-4.33-2.17-8.587-4.46-12.77-6.866
					c-4.183-2.406-8.29-4.929-12.32-7.564l4.395-30.335l4.395-30.335c0.155-1.065,0.323-2.123,0.501-3.175s0.369-2.1,0.569-3.145
					c0.21-1.045,0.432-2.087,0.665-3.124c0.233-1.036,0.475-2.066,0.725-3.086c0,0,0,0,0-0.001s0-0.004,0-0.009
					c0.11-0.41,0.217-0.82,0.328-1.229c0.11-0.409,0.223-0.816,0.343-1.221c0.25-0.95,0.517-1.895,0.796-2.835
					c0.279-0.94,0.569-1.875,0.864-2.805c0.105-0.33,0.212-0.662,0.323-0.994s0.223-0.661,0.338-0.986
					c0.345-0.99,0.698-1.975,1.06-2.955s0.735-1.955,1.12-2.925c1.685-4.2,3.592-8.29,5.709-12.25
					c2.116-3.96,4.441-7.79,6.961-11.47c1.15-1.68,2.338-3.33,3.565-4.948c1.227-1.618,2.495-3.203,3.805-4.753
					c0.215-0.26,0.435-0.52,0.659-0.78c0.224-0.26,0.451-0.52,0.681-0.78c4.415-5.07,9.245-9.763,14.445-14.021
					c5.2-4.259,10.77-8.084,16.665-11.419v-0.005v-0.005c0.075-0.035,0.147-0.077,0.221-0.121s0.149-0.089,0.229-0.129
					c2.99-1.675,6.062-3.223,9.213-4.638s6.378-2.698,9.678-3.842l2.51-0.87l2.51-0.87c0,0,0.003,0,0.005-0.001
					s0.005-0.004,0.005-0.009l1.52-0.52l1.52-0.52v-8.12v-8.12c0-1.38,0.557-2.628,1.46-3.53s2.15-1.46,3.53-1.46h8.395h8.395
					c2.845,0,5.575,0.497,8.107,1.411c2.533,0.914,4.868,2.244,6.923,3.909c2.02,1.625,3.768,3.575,5.166,5.769
					s2.449,4.631,3.074,7.231c0.03,0.105,0.058,0.21,0.083,0.315c0.025,0.105,0.047,0.21,0.067,0.315
					c0.025-0.125,0.053-0.247,0.083-0.37s0.063-0.245,0.098-0.37c0.625-2.565,1.667-4.97,3.051-7.138s3.109-4.098,5.099-5.712
					c0.36-0.295,0.727-0.577,1.104-0.849c0.376-0.271,0.761-0.531,1.156-0.781c1.855-1.185,3.882-2.117,6.036-2.754
					c2.154-0.636,4.434-0.976,6.794-0.976h8.39h8.39c1.38,0,2.63,0.56,3.535,1.465s1.465,2.155,1.465,3.535v9.055v9.055l1.235,0.415
					l1.235,0.415c0.235,0.08,0.467,0.16,0.701,0.242c0.234,0.082,0.469,0.168,0.709,0.258c1.11,0.385,2.215,0.79,3.311,1.211
					s2.184,0.859,3.259,1.309c0.645,0.275,1.295,0.555,1.942,0.841c0.647,0.286,1.292,0.579,1.927,0.879
					c0.325,0.15,0.648,0.3,0.966,0.452s0.634,0.307,0.944,0.467c0.535,0.25,1.067,0.508,1.599,0.773s1.061,0.538,1.591,0.818
					c0.195,0.105,0.392,0.21,0.59,0.315s0.395,0.21,0.59,0.315c0.83,0.445,1.65,0.9,2.464,1.365s1.621,0.94,2.426,1.425
					c1.915,1.16,3.8,2.37,5.646,3.63s3.654,2.57,5.414,3.93c0.44,0.335,0.875,0.677,1.31,1.022c0.435,0.345,0.87,0.692,1.31,1.038
					c4.015,3.28,7.815,6.815,11.376,10.581s6.884,7.764,9.944,11.969c1.645,2.26,3.215,4.58,4.705,6.956s2.9,4.809,4.225,7.294
					c3.5,6.535,6.43,13.425,8.731,20.596c2.301,7.171,3.974,14.624,4.959,22.284l3.845,29.925L393.66,471.87z"/>
				<path id="XMLID_1071_" style="fill:#D74545;" d="M393.66,471.87c-19.875,12.7-41.622,22.733-64.735,29.59
					C305.812,508.318,281.335,512,256,512c-12.21,0-24.222-0.855-35.979-2.509c-11.756-1.654-23.256-4.106-34.441-7.301
					c-2.74-0.78-5.458-1.605-8.155-2.475s-5.375-1.785-8.035-2.745c-2.32-0.83-4.625-1.695-6.914-2.594
					c-2.289-0.899-4.561-1.831-6.816-2.796l0.095-0.305l0.095-0.305l1.365-4.48l1.365-4.48l0.92-3.04l0.92-3.04l6.605-21.7
					l6.605-21.7c0.84-2.76,1.665-5.525,2.411-8.309s1.414-5.586,1.939-8.421c0.265-1.435,0.693-2.833,1.272-4.165
					c0.58-1.333,1.312-2.6,2.187-3.775c0.16-0.21,0.323-0.42,0.489-0.628s0.336-0.412,0.511-0.612c0.09-0.1,0.18-0.2,0.271-0.299
					c0.091-0.099,0.184-0.196,0.279-0.291c0.09-0.1,0.182-0.198,0.277-0.293s0.193-0.188,0.293-0.278
					c0.095-0.095,0.192-0.187,0.291-0.279c0.099-0.091,0.199-0.181,0.299-0.271l12.135-10.705L208.42,383.5l8.455-7.46l8.455-7.46
					l10.605-9.355l10.605-9.355c0.205-0.18,0.407-0.362,0.607-0.549s0.398-0.376,0.593-0.571c0.015-0.015,0.03-0.028,0.045-0.04
					s0.03-0.025,0.045-0.04c0.2-0.2,0.397-0.4,0.592-0.601c0.195-0.201,0.387-0.404,0.577-0.609
					c0.775-0.845,1.503-1.727,2.181-2.642s1.309-1.863,1.889-2.837c0.14-0.235,0.277-0.472,0.411-0.712s0.264-0.482,0.389-0.727
					c0.135-0.25,0.265-0.503,0.39-0.756s0.245-0.509,0.36-0.764c0.99-2.135,1.75-4.378,2.262-6.689s0.777-4.691,0.777-7.101v-9.085
					v-9.085c0.025-0.125,0.053-0.247,0.083-0.37s0.063-0.245,0.098-0.37c0.625-2.565,1.667-4.97,3.051-7.138
					s3.109-4.098,5.099-5.712c0.36-0.295,0.727-0.577,1.104-0.849c0.376-0.271,0.761-0.531,1.156-0.781
					c1.855-1.185,3.882-2.117,6.036-2.754c2.154-0.636,4.434-0.976,6.794-0.976h8.39h8.39c1.38,0,2.63,0.56,3.535,1.465
					s1.465,2.155,1.465,3.535v9.055v9.055l1.235,0.415l1.235,0.415c0.235,0.08,0.467,0.16,0.701,0.242
					c0.234,0.082,0.469,0.168,0.709,0.258c1.11,0.385,2.215,0.79,3.311,1.211s2.184,0.859,3.259,1.309
					c0.645,0.275,1.295,0.555,1.942,0.841c0.647,0.286,1.292,0.579,1.927,0.879c0.325,0.15,0.648,0.3,0.966,0.452
					s0.634,0.307,0.944,0.467c0.535,0.25,1.067,0.508,1.599,0.773s1.061,0.538,1.591,0.818c0.195,0.105,0.392,0.21,0.59,0.315
					s0.395,0.21,0.59,0.315c0.83,0.445,1.65,0.9,2.464,1.365s1.621,0.94,2.426,1.425c1.915,1.16,3.8,2.37,5.646,3.63
					s3.654,2.57,5.414,3.93c0.44,0.335,0.875,0.677,1.31,1.022c0.435,0.345,0.87,0.692,1.31,1.038
					c4.015,3.28,7.815,6.815,11.376,10.581s6.884,7.764,9.944,11.969c1.645,2.26,3.215,4.58,4.705,6.956s2.9,4.809,4.225,7.294
					c3.5,6.535,6.43,13.425,8.731,20.596c2.301,7.171,3.974,14.624,4.959,22.284l3.845,29.925L393.66,471.87z"/>
				<path id="XMLID_1058_" style="fill:#E9B12D;" d="M302.86,293.11v0.395v0.395h-4.09h-4.09c-1.925,0-3.795,0.228-5.586,0.656
					s-3.504,1.059-5.114,1.864c-3.21,1.605-6.01,3.91-8.197,6.715c-2.188,2.805-3.763,6.11-4.523,9.715v5.565v5.565h5.45h5.45
					c2.075,0,3.955,0.842,5.316,2.204c1.361,1.361,2.204,3.241,2.204,5.316c0,2.075-0.842,3.955-2.204,5.316
					s-3.241,2.204-5.316,2.204h-5.95h-5.95c-0.805,3.19-2.078,6.24-3.778,9.047s-3.828,5.372-6.342,7.592l-7.34,6.47l-7.34,6.47
					c1.97,0.12,3.735,0.995,5.008,2.34s2.053,3.16,2.053,5.16c0,2.075-0.84,3.955-2.2,5.316c-1.36,1.361-3.24,2.204-5.32,2.204
					h-8.28h-8.28l-15.345,13.535L197.75,410.69c-1.125,0.995-2.115,2.108-2.961,3.31s-1.549,2.495-2.099,3.85h3.855h3.855
					c2.08,0,3.96,0.842,5.32,2.204c1.36,1.361,2.2,3.241,2.2,5.316s-0.84,3.955-2.2,5.316c-1.36,1.361-3.24,2.204-5.32,2.204h-5.785
					h-5.785c-0.265,0.905-0.53,1.81-0.798,2.714c-0.268,0.904-0.538,1.806-0.813,2.706l-5.72,18.81l-5.72,18.81h4.05h4.05
					c2.075,0,3.955,0.843,5.316,2.204s2.204,3.241,2.204,5.316c0,2.08-0.842,3.96-2.204,5.32c-1.361,1.36-3.241,2.2-5.316,2.2
					h-6.335h-6.335l-0.16,0.525l-0.16,0.525l-0.75,2.475l-0.75,2.475c-2.32-0.83-4.625-1.695-6.914-2.594
					c-2.289-0.899-4.561-1.831-6.816-2.796l0.095-0.305l0.095-0.305h-0.805h-0.805c-2.2-0.955-4.385-1.937-6.554-2.951
					c-2.169-1.014-4.321-2.059-6.456-3.139c-0.045-0.23-0.08-0.465-0.104-0.704c-0.024-0.239-0.036-0.481-0.036-0.726
					c0-2.075,0.842-3.955,2.204-5.316s3.241-2.204,5.316-2.204h5.905h5.905l6.545-21.52l6.545-21.52h-4.185h-4.185
					c-1.35,0-2.618-0.358-3.713-0.983s-2.017-1.517-2.678-2.587c-0.36-0.575-0.642-1.2-0.835-1.863
					c-0.193-0.662-0.295-1.362-0.295-2.087c0-1.115,0.243-2.175,0.679-3.128c0.436-0.952,1.066-1.797,1.841-2.482
					c0.66-0.595,1.43-1.072,2.275-1.401s1.765-0.509,2.725-0.509h6.205h6.205c0.07-0.34,0.145-0.683,0.219-1.025
					c0.074-0.342,0.146-0.685,0.211-1.025c0.265-1.435,0.693-2.833,1.272-4.165c0.58-1.333,1.312-2.6,2.187-3.775
					c0.16-0.21,0.323-0.42,0.489-0.628s0.336-0.412,0.511-0.612c0.09-0.1,0.18-0.2,0.271-0.299c0.091-0.099,0.184-0.196,0.279-0.291
					c0.09-0.1,0.182-0.198,0.277-0.293s0.193-0.188,0.293-0.278c0.095-0.095,0.192-0.187,0.291-0.279
					c0.099-0.091,0.199-0.181,0.299-0.271l12.135-10.705L208.42,383.5c-1.76-0.315-3.31-1.24-4.42-2.549s-1.78-3.001-1.78-4.851
					c0-2.075,0.843-3.955,2.204-5.316c1.361-1.361,3.241-2.204,5.316-2.204h7.795h7.795l10.605-9.355l10.605-9.355
					c0.205-0.18,0.407-0.365,0.607-0.552s0.398-0.378,0.593-0.568c0.015-0.015,0.03-0.028,0.045-0.04s0.03-0.025,0.045-0.04
					c0.2-0.2,0.397-0.4,0.592-0.601c0.195-0.201,0.387-0.404,0.577-0.609c0.775-0.845,1.503-1.727,2.181-2.642
					s1.309-1.863,1.889-2.837c0.14-0.235,0.277-0.475,0.411-0.716s0.264-0.484,0.389-0.724c0.13-0.25,0.258-0.503,0.383-0.756
					s0.247-0.509,0.367-0.764h-3.865h-3.865c-2.075,0-3.955-0.843-5.316-2.204s-2.204-3.241-2.204-5.316
					c0-2.075,0.842-3.955,2.204-5.316c1.361-1.361,3.241-2.204,5.316-2.204h5.385h5.385v-8.46v-8.46
					c0.025-0.125,0.053-0.247,0.083-0.37s0.063-0.245,0.098-0.37c0.625-2.565,1.667-4.97,3.051-7.138s3.109-4.098,5.099-5.712
					c0.36-0.295,0.727-0.577,1.104-0.849c0.376-0.271,0.761-0.531,1.156-0.781c1.855-1.185,3.882-2.117,6.036-2.754
					c2.154-0.636,4.434-0.976,6.794-0.976h8.39h8.39c1.38,0,2.63,0.56,3.535,1.465S302.86,291.73,302.86,293.11z"/>
				<g id="XMLID_888_">
					<path id="XMLID_890_" style="fill:#D74545;" d="M166.24,206.429c0-4.678-0.622-8.914-1.628-11.979
						c-1.006-3.066-2.395-4.962-3.929-4.962c-1.535,0-2.924,1.896-3.929,4.962s-1.628,7.301-1.628,11.979
						c0,4.678,0.622,8.914,1.628,11.979s2.395,4.962,3.929,4.962c1.535,0,2.924-1.896,3.929-4.962
						C165.618,215.343,166.24,211.108,166.24,206.429z"/>
					<path id="XMLID_889_" style="fill:#D74545;" d="M160.683,223.371c-1.535,0-2.924,1.896-3.929,4.962s-1.628,7.301-1.628,11.979
						s0.622,8.914,1.628,11.979c1.006,3.066,2.395,4.962,3.929,4.962c1.535,0,2.924-1.896,3.929-4.962
						c1.006-3.066,1.628-7.301,1.628-11.979s-0.622-8.914-1.628-11.979C163.607,225.267,162.218,223.371,160.683,223.371z"/>
				</g>
				<g id="XMLID_884_">
					<path id="XMLID_887_" style="fill:#D74545;" d="M359.294,206.429c0-4.678-0.622-8.914-1.628-11.979s-2.395-4.962-3.929-4.962
						s-2.924,1.896-3.93,4.962c-1.006,3.066-1.628,7.301-1.628,11.979c0,4.678,0.622,8.914,1.628,11.979
						c1.006,3.066,2.395,4.962,3.93,4.962s2.924-1.896,3.929-4.962S359.294,211.108,359.294,206.429z"/>
					<path id="XMLID_886_" style="fill:#D74545;" d="M353.737,223.371c-1.535,0-2.924,1.896-3.93,4.962
						c-1.006,3.066-1.628,7.301-1.628,11.979s0.622,8.914,1.628,11.979c1.006,3.066,2.395,4.962,3.93,4.962s2.924-1.896,3.929-4.962
						c1.006-3.066,1.628-7.301,1.628-11.979s-0.622-8.914-1.628-11.979S355.271,223.371,353.737,223.371z"/>
				</g>
			</g>
		</g>
		<path id="XMLID_2418_" style="fill:#B78B84;" d="M166.619,165.52c-2.271,0-4.326,0.92-5.815,2.408
			c-1.488,1.488-2.408,3.544-2.408,5.814s0.92,4.326,2.408,5.815c1.488,1.488,3.544,2.408,5.815,2.408v-8.223V165.52z"/>
		<path id="XMLID_2452_" style="fill:#CD9D93;" d="M349.625,181.966c2.271,0,4.326-0.92,5.815-2.408
			c1.488-1.488,2.408-3.544,2.408-5.814s-0.92-4.326-2.408-5.815c-1.488-1.488-3.544-2.408-5.815-2.408v8.223V181.966z"/>
	</g>
</g>
</svg>
